<?xml version="1.0" encoding="UTF-8"?>
<svg width="360px" height="255px" viewBox="0 0 360 255" version="1.1" xmlns="http://www.w3.org/2000/svg" xmlns:xlink="http://www.w3.org/1999/xlink">
    <!-- Generator: Sketch 42 (36781) - http://www.bohemiancoding.com/sketch -->
    <title>Combined Shape</title>
    <desc>Created with Sketch.</desc>
    <defs></defs>
    <g id="Welcome" stroke="none" stroke-width="1" fill="none" fill-rule="evenodd">
        <path d="M51,110 C51,49.2486775 89.2796539,0 136.5,0 C183.720346,0 222,49.2486775 222,110 C222,116.690466 221.535731,123.241424 220.646382,129.602457 C234.893912,122.275297 252.044619,118 270.5,118 C319.929485,118 360,148.668495 360,186.5 C360,224.331505 319.929485,255 270.5,255 C228.062443,255 192.523417,232.39414 183.318369,202.057593 C169.869097,213.402244 153.783433,220 136.5,220 C117.841,220 100.578013,212.310237 86.5212216,199.259599 C77.3318521,207.786518 65.024763,213 51.5,213 C23.0573354,213 -7.10542736e-15,189.942665 -7.10542736e-15,161.5 C-7.10542736e-15,133.224189 22.7876064,110.270708 51,110.002377 Z" id="Combined-Shape" fill="#90DBDF"></path>
    </g>
</svg>