<?xml version="1.0" encoding="UTF-8"?>
<svg width="662px" height="239px" viewBox="0 0 662 239" version="1.1" xmlns="http://www.w3.org/2000/svg" xmlns:xlink="http://www.w3.org/1999/xlink">
    <!-- Generator: Sketch 42 (36781) - http://www.bohemiancoding.com/sketch -->
    <title>Combined Shape</title>
    <desc>Created with Sketch.</desc>
    <defs></defs>
    <g id="Welcome" stroke="none" stroke-width="1" fill="none" fill-rule="evenodd">
        <path d="M146.376836,161.987995 C146.750259,161.995985 147.124661,162 147.5,162 C160.308319,162 172.024554,157.324233 181.034899,149.586506 C181.011697,150.221477 181,150.859372 181,151.5 C181,179.942665 204.057335,203 232.5,203 C260.942665,203 284,179.942665 284,151.5 C284,149.705616 283.90823,147.932665 283.729128,146.185586 C290.341937,149.274614 297.719476,151 305.5,151 C306.455995,151 307.405905,150.973952 308.349061,150.922526 C314.903031,171.830814 334.430039,187 357.5,187 C366.953043,187 375.811226,184.4531 383.42578,180.00807 C390.8604,199.306745 409.581084,213 431.5,213 C458.465825,213 480.591051,192.274931 482.815983,165.884488 C483.602188,165.704571 484.384187,165.513622 485.16181,165.311813 C491.524126,186.534778 511.206015,202 534.5,202 C543.618769,202 552.184004,199.63004 559.613356,195.47247 C563.445217,220.129381 584.768874,239 610.5,239 C638.942665,239 662,215.942665 662,187.5 C662,159.057335 638.942665,136 610.5,136 C601.381231,136 592.815996,138.36996 585.386644,142.52753 C582.164925,121.796705 566.578317,105.15619 546.403336,100.382501 C547.450824,95.0838431 548,89.606055 548,84 C548,37.608081 510.391919,0 464,0 C417.608081,0 380,37.608081 380,84 C380,85.7600387 380.05413,87.5074345 380.160817,89.2406136 C373.322646,85.8845127 365.631399,84 357.5,84 C356.544005,84 355.594095,84.0260483 354.650939,84.0774739 C348.096969,63.1691863 328.569961,48 305.5,48 C277.057335,48 254,71.0573354 254,99.5 C254,101.294384 254.09177,103.067335 254.270872,104.814414 C247.658063,101.725386 240.280524,100 232.5,100 C219.691686,100 207.975454,104.675763 198.96511,112.413485 C198.988303,111.778523 199,111.140628 199,110.5 C199,82.0573354 175.942665,59 147.5,59 C131.835217,59 117.803938,65.9938665 108.358382,77.0293832 C97.9855707,70.6314174 86.1138567,67 73.5,67 C32.9070709,67 0,104.608081 0,151 C0,197.391919 32.9070709,235 73.5,235 C110.834216,235 141.667051,203.187744 146.376836,161.987995 Z" id="Combined-Shape" fill="#90DBDF"></path>
    </g>
</svg>